# xmcd
#
# Track frame offsets: 
#        150
#        13188
#        25136
#        38179
#        51463
#        63146
#        75622
#        96823
#        112357
#        127744
#        142742
#        159446
#        171615
#        185528
#        200108
#        212892
#        228333
#        242769
#        253957
#        265682
#        281984
#        296086
#        308688
#
# Disc length: 4342 seconds
#
# Revision: 2
# Processed by: cddbd v1.5.2PL0 Copyright (c) Steve Scherf et al.
# Submitted via: ExactAudioCopy v1.1
#
DISCID=5b10f417
DTITLE=Country - 100% Country [CD1]
DYEAR=1900
DGENRE=Country
TTITLE0=The Shadows - Apache
TTITLE1=Dolly Parton - Jolene
TTITLE2=Kenny Rogers - Ruby, Don't Take Your Love To Town
TTITLE3=Pat Boone - Jambalaya
TTITLE4=Johnny Cash - Ring Of Fire
TTITLE5=Waylon Jennings - A'm A Ramblin Man
TTITLE6=The Allman Brothers Band - Ramblin Man
TTITLE7=The Groove Grass Boys - Macarena
TTITLE8=Billy Ray Cyrus - Achy Brealy Herth
TTITLE9=Brooks and Dunn - Boot Scootin Boogie
TTITLE10=Tanya Tucker - Tell Me About It
TTITLE11=Randy Travis - Heart Of Hearts
TTITLE12=Scooter Lee - High Test Love
TTITLE13=Carlene Carter - Every Little Things
TTITLE14=Johnny Cash - Get Rhytm
TTITLE15=Suzzy Boggkss - Other Side Of The Hill
TTITLE16=Rednex - Cotton Eye Joe
TTITLE17=Alan Jackson - Chattahoochee
TTITLE18=The Mavericks - Hey Good Lookin
TTITLE19=The Charlie Daniels Band - The Devil Went Down To Georia
TTITLE20=Sammus Saloon - Country Guitar No1
TTITLE21=Mark Chesnut - Talking To Hank
TTITLE22=Kimber Clayton - Jose Cuervo
EXTD=
EXTT0=
EXTT1=
EXTT2=
EXTT3=
EXTT4=
EXTT5=
EXTT6=
EXTT7=
EXTT8=
EXTT9=
EXTT10=
EXTT11=
EXTT12=
EXTT13=
EXTT14=
EXTT15=
EXTT16=
EXTT17=
EXTT18=
EXTT19=
EXTT20=
EXTT21=
EXTT22=
PLAYORDER=
